<?xml version="1.0" encoding="utf-8"?><svg xmlns="http://www.w3.org/2000/svg" xmlns:xlink="http://www.w3.org/1999/xlink"><symbol viewBox="0 0 16 16" id="check" xmlns="http://www.w3.org/2000/svg"><path clip-rule="evenodd" d="M14 4.022a1 1 0 01-.001 1.414l-6.53 6.53a1 1 0 01-1.384.03L2.825 9.01a1 1 0 011.352-1.474l2.201 2.017a.5.5 0 00.692-.015l5.515-5.515a1 1 0 011.414 0z"/></symbol><symbol viewBox="0 0 16 16" id="cross" xmlns="http://www.w3.org/2000/svg"><path clip-rule="evenodd" d="M11.536 3.05a1 1 0 111.414 1.414L9.414 8l3.536 3.536a1 1 0 11-1.414 1.414L8 9.414 4.464 12.95a1 1 0 01-1.414-1.414L6.586 8 3.05 4.464A1 1 0 114.464 3.05L8 6.586l3.536-3.536z"/></symbol><symbol viewBox="0 0 13 13" id="key" xmlns="http://www.w3.org/2000/svg"><path fill-rule="evenodd" clip-rule="evenodd" d="M7.683 5.563a4 4 0 10-2.122 2.12l1.127 1.128a.25.25 0 00.226.069l1.269-.254a.25.25 0 01.294.294L8.27 9.951a.25.25 0 00.294.295l1.033-.206a.25.25 0 01.294.294l-.253 1.27a.25.25 0 00.068.225l.141.141a.5.5 0 00.283.142l.99.141a1 1 0 001.132-1.131l-.142-.99a.5.5 0 00-.141-.283L7.683 5.563zM3.5 5a1.5 1.5 0 100-3 1.5 1.5 0 000 3z"/></symbol></svg>